<svg width="38" height="38" viewBox="0 0 38 38" fill="none" xmlns="http://www.w3.org/2000/svg">
<path d="M37.2161 1.49995C37.2161 0.671521 36.5445 -5.14135e-05 35.7161 -5.24671e-05L22.2161 -5.06127e-05C21.3877 -5.19614e-05 20.7161 0.671522 20.7161 1.49995C20.7161 2.32837 21.3877 2.99995 22.2161 2.99995L34.2161 2.99995L34.2161 14.9999C34.2161 15.8284 34.8877 16.4999 35.7161 16.4999C36.5445 16.4999 37.2161 15.8284 37.2161 14.9999L37.2161 1.49995ZM1.06067 36.1554L2.12133 37.2161L36.7768 2.56061L35.7161 1.49995L34.6555 0.439288L8.79169e-06 35.0947L1.06067 36.1554Z" fill="white"/>
</svg>
