<svg width="2637" height="660" viewBox="0 0 2637 660" fill="none" xmlns="http://www.w3.org/2000/svg">
<path d="M252.5 429C370.965 429 467 452.953 467 482.5C467 512.047 370.965 536 252.5 536C134.035 536 38 512.047 38 482.5C38 452.953 134.035 429 252.5 429Z" fill="#FFC107"/>
<path d="M252.5 132C370.965 132 467 155.953 467 185.5C467 215.047 370.965 239 252.5 239C134.035 239 38 215.047 38 185.5C38 155.953 134.035 132 252.5 132Z" fill="#FFC107"/>
<path d="M253 560C308.228 560 353 582.386 353 610C353 637.614 308.228 660 253 660C197.772 660 153 637.614 153 610C153 582.386 197.772 560 253 560Z" fill="#FFC107"/>
<path d="M253 0C308.228 0 353 22.3858 353 50C353 77.6142 308.228 100 253 100C197.772 100 153 77.6142 153 50C153 22.3858 197.772 0 253 0Z" fill="#FFC107"/>
<path d="M256.5 271C398.161 271 513 299.206 513 334C513 368.794 398.161 397 256.5 397C114.839 397 0 368.794 0 334C0 299.206 114.839 271 256.5 271Z" fill="#FFC107"/>
<path d="M828 299.5V160H907V510H828V370.5H706.5V510H628V160H706.5V299.5H828ZM982.848 227.5C953.848 227.5 938.348 206.5 938.348 180C938.348 154 953.848 133 982.848 133C1011.85 133 1027.85 154 1027.85 180C1027.85 206.5 1011.85 227.5 982.848 227.5ZM1020.85 510H944.848V243.5H1020.85V510ZM1215.15 243.5H1298.65L1193.15 510L1168.15 644.5L1143 510L1037.65 243.5H1121.65L1168.15 379L1215.15 243.5ZM1412.79 243.5C1503.29 243.5 1533.29 310 1533.29 371.5V407.5H1373.29C1381.29 432.5 1403.79 446 1455.79 446C1473.29 446 1494.29 444.5 1519.29 441.5V510.5C1492.29 514.5 1467.29 516.5 1444.29 516.5C1346.29 516.5 1292.29 476.5 1292.29 379.5C1292.29 309 1324.79 243.5 1412.79 243.5ZM1372.29 352H1462.79C1459.79 332.5 1447.79 310.5 1417.29 310.5C1392.29 310.5 1378.29 327 1372.29 352Z" fill="black"/>
<path d="M1695.54 440L1805.04 436.5V515H1556.04L1695.54 233.5H1556.04V160H1805.04L1958.61 43L1695.54 440ZM1958.61 232.5C2043.11 232.5 2095.11 296 2095.11 374C2095.11 452 2043.11 515 1958.61 515C1873.61 515 1821.61 452 1821.61 374C1821.61 296 1873.61 232.5 1958.61 232.5ZM1958.61 440C1997.61 440 2016.61 410.5 2016.61 374C2016.61 337.5 1997.61 308 1958.61 308C1919.61 308 1900.61 337.5 1900.61 374C1900.61 410.5 1919.61 440 1958.61 440ZM2266.56 237.5C2342.06 237.5 2374.06 262.5 2374.06 347V510H2294.56V350C2294.56 316 2283.56 309.5 2255.06 309.5H2242.56C2214.06 309.5 2203.06 316 2203.06 350V510H2123.56V347C2123.56 262.5 2156.06 237.5 2231.06 237.5H2266.56ZM2526.67 309.5C2500.17 309.5 2489.17 315 2487.17 342.5L2587.17 340.5V407L2487.17 405C2489.17 432.5 2500.17 438 2526.67 438H2622.67V510H2515.17C2440.17 510 2407.67 485 2407.67 400.5V347C2407.67 262.5 2440.17 237.5 2515.17 237.5H2622.67V309.5H2526.67Z" fill="#FFC107"/>
</svg>
