<svg width="564" height="120" viewBox="0 0 564 120" fill="none" xmlns="http://www.w3.org/2000/svg">
<path d="M164.9 61.4V90H148.5V20H164.9V48.6L192.6 47.6V20H209V90H192.6V62.4L164.9 61.4ZM235.229 27.9H219.329V12H235.229V27.9ZM235.229 90H219.329V35.5H235.229V90ZM281.645 35.5H295.745L285.745 75.8C283.845 84.2 280.245 90 271.945 90H265.345C257.045 90 253.445 84.2 251.545 75.8L241.545 35.5H255.645L264.745 72.9C265.245 74.9 265.845 75.6 267.845 75.6H269.445C270.445 75.6 271.145 75.4 271.545 75C272.045 74.6 272.345 73.9 272.545 72.9L281.645 35.5ZM324.03 49.9C318.73 49.9 316.53 51 316.13 56.5L336.13 56.1V69.4L316.13 69C316.53 74.5 318.73 75.6 324.03 75.6H343.23V90H321.73C306.73 90 300.23 85 300.23 68.1V57.4C300.23 40.5 306.73 35.5 321.73 35.5H343.23V49.9H324.03Z" fill="#2C2C2C"/>
<path d="M369.661 75.3H399.661V90H348.761V78.4L377.761 34.7H349.861V20H398.661V31.7L369.661 75.3ZM429.877 36.2C446.577 36.2 455.577 48.3 455.577 63.3C455.577 78.3 446.477 90.5 429.877 90.5C413.177 90.5 404.177 78.3 404.177 63.3C404.177 48.3 413.177 36.2 429.877 36.2ZM429.877 76.4C436.477 76.4 440.077 70.5 440.077 63.3C440.077 56.1 436.477 50.3 429.877 50.3C423.277 50.3 419.677 56.1 419.677 63.3C419.677 70.5 423.277 76.4 429.877 76.4ZM485.262 36.2C501.762 36.2 508.862 46.7 508.862 61.1V90H493.662V61.1C493.662 55.3 491.462 50.4 485.262 50.4C479.062 50.4 476.862 55.3 476.862 61.1V90H461.662V61.1C461.662 46.7 468.862 36.2 485.262 36.2ZM539.287 36.7C557.387 36.7 563.387 50 563.387 62.3V69.5H531.387C532.987 74.5 537.487 77.2 547.887 77.2C551.387 77.2 555.587 76.9 560.587 76.3V90.1C555.187 90.9 550.187 91.3 545.587 91.3C525.987 91.3 515.187 83.3 515.187 63.9C515.187 49.8 521.687 36.7 539.287 36.7ZM531.187 58.4H549.287C548.687 54.5 546.287 50.1 540.187 50.1C535.187 50.1 532.387 53.4 531.187 58.4Z" fill="#FFC107"/>
<ellipse cx="50.1408" cy="11.1963" rx="50.1408" ry="11.1963" transform="matrix(1 0 0 -1 8.94717 100.977)" fill="#FFC107"/>
<ellipse cx="50.1408" cy="11.1963" rx="50.1408" ry="11.1963" transform="matrix(1 0 0 -1 8.94717 41.4158)" fill="#FFC107"/>
<ellipse cx="24.2254" cy="6.8056" rx="24.2254" ry="6.8056" transform="matrix(1 0 0 -1 34.8626 120)" fill="#FFC107"/>
<ellipse cx="24.2254" cy="6.8056" rx="24.2254" ry="6.8056" transform="matrix(1 0 0 -1 35.426 13.6112)" fill="#FFC107"/>
<ellipse cx="60" cy="13.1721" rx="60" ry="13.1721" transform="matrix(1 0 0 -1 0 73.1721)" fill="#FFC107"/>
</svg>
