<svg width="814" height="1117" viewBox="0 0 814 1117" fill="none" xmlns="http://www.w3.org/2000/svg">
<g filter="url(#filter0_d_197_25)">
<path d="M410.744 697.457C407.287 702.998 407.299 710.017 410.773 715.525L490.511 841.904C493.555 846.728 498.823 849.694 504.535 849.798L679.376 852.984C685.013 853.087 690.343 850.389 693.605 845.781L780.836 722.582C784.749 717.056 785.022 709.748 781.532 703.969L699.493 568.117C696.484 563.133 691.125 560.047 685.296 559.941L508.333 556.715C502.344 556.606 496.729 559.657 493.553 564.746L410.744 697.457Z" fill="url(#paint0_linear_197_25)" shape-rendering="crispEdges"/>
<path d="M412.44 698.512C409.39 703.401 409.4 709.594 412.466 714.454L492.204 840.834C494.889 845.09 499.539 847.707 504.578 847.798L679.419 850.985C684.393 851.076 689.095 848.695 691.974 844.629L779.205 721.43C782.657 716.555 782.898 710.105 779.819 705.006L697.78 569.154C695.125 564.757 690.396 562.034 685.253 561.941L508.29 558.715C503.006 558.619 498.051 561.31 495.249 565.801L412.44 698.512Z" stroke="#FFDE21" stroke-width="4" shape-rendering="crispEdges"/>
</g>
<g filter="url(#filter1_d_197_25)">
<path d="M413.979 392.446C410.642 398.047 410.804 405.063 414.394 410.506L496.759 535.361C499.905 540.13 505.237 543 510.95 543H685.691C691.329 543 696.601 540.204 699.764 535.537L784.28 410.818C788.072 405.223 788.189 397.913 784.577 392.199L699.71 257.918C696.595 252.989 691.171 250 685.34 250H508.479C502.488 250 496.939 253.154 493.874 258.301L413.979 392.446Z" fill="url(#paint1_linear_197_25)" shape-rendering="crispEdges"/>
<path d="M415.697 393.469C412.753 398.411 412.896 404.602 416.064 409.404L498.429 534.26C501.205 538.468 505.909 541 510.949 541H685.691C690.666 541 695.318 538.534 698.109 534.415L782.624 409.696C785.97 404.759 786.073 398.309 782.887 393.268L698.02 258.986C695.271 254.637 690.485 252 685.34 252H508.48C503.193 252 498.297 254.782 495.592 259.324L415.697 393.469Z" stroke="#FFDE21" stroke-width="4" shape-rendering="crispEdges"/>
</g>
<g filter="url(#filter2_d_197_25)">
<path d="M105.979 862.446C102.642 868.047 102.804 875.063 106.394 880.506L188.759 1005.36C191.905 1010.13 197.237 1013 202.95 1013H377.691C383.329 1013 388.601 1010.2 391.764 1005.54L476.28 880.818C480.072 875.223 480.189 867.913 476.577 862.199L391.71 727.918C388.595 722.989 383.171 720 377.34 720H200.479C194.488 720 188.939 723.154 185.874 728.301L105.979 862.446Z" fill="url(#paint2_linear_197_25)" shape-rendering="crispEdges"/>
<path d="M107.697 863.469C104.753 868.411 104.896 874.602 108.064 879.404L190.429 1004.26C193.205 1008.47 197.909 1011 202.949 1011H377.691C382.666 1011 387.318 1008.53 390.109 1004.42L474.624 879.696C477.97 874.759 478.073 868.309 474.887 863.268L390.02 728.986C387.271 724.637 382.485 722 377.34 722H200.48C195.193 722 190.297 724.782 187.592 729.324L107.697 863.469Z" stroke="#FFDE21" stroke-width="4" shape-rendering="crispEdges"/>
</g>
<g filter="url(#filter3_d_197_25)">
<path d="M474.067 246.554C477.403 240.953 477.242 233.937 473.652 228.494L391.286 103.639C388.14 98.8698 382.809 96 377.096 96L202.355 96C196.716 96 191.445 98.7957 188.282 103.463L103.765 228.182C99.9736 233.777 99.8569 241.087 103.468 246.801L188.335 381.082C191.45 386.011 196.875 389 202.706 389L379.566 389C385.557 389 391.106 385.846 394.172 380.699L474.067 246.554Z" fill="url(#paint3_linear_197_25)" shape-rendering="crispEdges"/>
<path d="M472.349 245.531C475.293 240.589 475.15 234.398 471.982 229.596L389.616 104.74C386.841 100.532 382.137 98.0001 377.096 98L202.355 98C197.38 98 192.728 100.466 189.937 104.585L105.421 229.304C102.076 234.241 101.972 240.691 105.158 245.732L190.026 380.014C192.774 384.363 197.56 387 202.705 387L379.566 387C384.852 387 389.748 384.218 392.453 379.676L472.349 245.531Z" stroke="#FFDE21" stroke-width="4" shape-rendering="crispEdges"/>
</g>
<g filter="url(#filter4_d_197_25)">
<path d="M102.203 552.173C98.992 557.838 99.3121 564.851 103.026 570.224L188.259 693.511C191.512 698.217 196.907 700.982 202.618 700.872L377.456 697.504C383.092 697.395 388.299 694.499 391.356 689.773L473.095 563.406C476.761 557.738 476.712 550.426 472.971 544.782L385.023 412.117C381.796 407.25 376.306 404.368 370.477 404.48L193.518 407.889C187.529 408.005 182.053 411.264 179.104 416.468L102.203 552.173Z" fill="url(#paint4_linear_197_25)" shape-rendering="crispEdges"/>
<path d="M103.943 553.163C101.111 558.162 101.393 564.35 104.67 569.091L189.903 692.377C192.774 696.53 197.533 698.97 202.573 698.873L377.41 695.504C382.384 695.408 386.978 692.853 389.675 688.683L471.414 562.316C474.649 557.315 474.606 550.863 471.305 545.883L383.357 413.218C380.51 408.924 375.666 406.38 370.522 406.479L193.564 409.889C188.28 409.991 183.447 412.866 180.845 417.458L103.943 553.163Z" stroke="#FFDE21" stroke-width="4" shape-rendering="crispEdges"/>
</g>
<line y1="-1.5" x2="16" y2="-1.5" transform="matrix(0 -1 -1 0 599.523 559)" stroke="#FFC107" stroke-width="3"/>
<line y1="-1.5" x2="23.0217" y2="-1.5" transform="matrix(0.819152 -0.573576 -0.573576 -0.819152 431.594 793.102)" stroke="#FFC107" stroke-width="3"/>
<line y1="-1.5" x2="20.025" y2="-1.5" transform="matrix(0 -1 -1 0 286.023 720.012)" stroke="#FFC107" stroke-width="3"/>
<line y1="-1.5" x2="19.3985" y2="-1.5" transform="matrix(-0.779871 -0.62594 -0.62594 0.779871 443.523 645)" stroke="#FFC107" stroke-width="3"/>
<line y1="-1.5" x2="24.9602" y2="-1.5" transform="matrix(-0.866025 -0.5 -0.5 0.866025 445.554 339.946)" stroke="#FFC107" stroke-width="3"/>
<defs>
<filter id="filter0_d_197_25" x="308.159" y="460.713" width="575.813" height="496.275" filterUnits="userSpaceOnUse" color-interpolation-filters="sRGB">
<feFlood flood-opacity="0" result="BackgroundImageFix"/>
<feColorMatrix in="SourceAlpha" type="matrix" values="0 0 0 0 0 0 0 0 0 0 0 0 0 0 0 0 0 0 127 0" result="hardAlpha"/>
<feOffset dy="4"/>
<feGaussianBlur stdDeviation="50"/>
<feComposite in2="hardAlpha" operator="out"/>
<feColorMatrix type="matrix" values="0 0 0 0 1 0 0 0 0 0.855507 0 0 0 0 0.027957 0 0 0 0.3 0"/>
<feBlend mode="normal" in2="BackgroundImageFix" result="effect1_dropShadow_197_25"/>
<feBlend mode="normal" in="SourceGraphic" in2="effect1_dropShadow_197_25" result="shape"/>
</filter>
<filter id="filter1_d_197_25" x="311.584" y="154" width="575.623" height="493" filterUnits="userSpaceOnUse" color-interpolation-filters="sRGB">
<feFlood flood-opacity="0" result="BackgroundImageFix"/>
<feColorMatrix in="SourceAlpha" type="matrix" values="0 0 0 0 0 0 0 0 0 0 0 0 0 0 0 0 0 0 127 0" result="hardAlpha"/>
<feOffset dy="4"/>
<feGaussianBlur stdDeviation="50"/>
<feComposite in2="hardAlpha" operator="out"/>
<feColorMatrix type="matrix" values="0 0 0 0 1 0 0 0 0 0.855507 0 0 0 0 0.027957 0 0 0 0.3 0"/>
<feBlend mode="normal" in2="BackgroundImageFix" result="effect1_dropShadow_197_25"/>
<feBlend mode="normal" in="SourceGraphic" in2="effect1_dropShadow_197_25" result="shape"/>
</filter>
<filter id="filter2_d_197_25" x="3.58423" y="624" width="575.623" height="493" filterUnits="userSpaceOnUse" color-interpolation-filters="sRGB">
<feFlood flood-opacity="0" result="BackgroundImageFix"/>
<feColorMatrix in="SourceAlpha" type="matrix" values="0 0 0 0 0 0 0 0 0 0 0 0 0 0 0 0 0 0 127 0" result="hardAlpha"/>
<feOffset dy="4"/>
<feGaussianBlur stdDeviation="50"/>
<feComposite in2="hardAlpha" operator="out"/>
<feColorMatrix type="matrix" values="0 0 0 0 1 0 0 0 0 0.855507 0 0 0 0 0.027957 0 0 0 0.3 0"/>
<feBlend mode="normal" in2="BackgroundImageFix" result="effect1_dropShadow_197_25"/>
<feBlend mode="normal" in="SourceGraphic" in2="effect1_dropShadow_197_25" result="shape"/>
</filter>
<filter id="filter3_d_197_25" x="0.838379" y="0" width="575.623" height="493" filterUnits="userSpaceOnUse" color-interpolation-filters="sRGB">
<feFlood flood-opacity="0" result="BackgroundImageFix"/>
<feColorMatrix in="SourceAlpha" type="matrix" values="0 0 0 0 0 0 0 0 0 0 0 0 0 0 0 0 0 0 127 0" result="hardAlpha"/>
<feOffset dy="4"/>
<feGaussianBlur stdDeviation="50"/>
<feComposite in2="hardAlpha" operator="out"/>
<feColorMatrix type="matrix" values="0 0 0 0 1 0 0 0 0 0.855507 0 0 0 0 0.027957 0 0 0 0.3 0"/>
<feBlend mode="normal" in2="BackgroundImageFix" result="effect1_dropShadow_197_25"/>
<feBlend mode="normal" in="SourceGraphic" in2="effect1_dropShadow_197_25" result="shape"/>
</filter>
<filter id="filter4_d_197_25" x="0" y="308.477" width="575.811" height="496.399" filterUnits="userSpaceOnUse" color-interpolation-filters="sRGB">
<feFlood flood-opacity="0" result="BackgroundImageFix"/>
<feColorMatrix in="SourceAlpha" type="matrix" values="0 0 0 0 0 0 0 0 0 0 0 0 0 0 0 0 0 0 127 0" result="hardAlpha"/>
<feOffset dy="4"/>
<feGaussianBlur stdDeviation="50"/>
<feComposite in2="hardAlpha" operator="out"/>
<feColorMatrix type="matrix" values="0 0 0 0 1 0 0 0 0 0.855507 0 0 0 0 0.027957 0 0 0 0.3 0"/>
<feBlend mode="normal" in2="BackgroundImageFix" result="effect1_dropShadow_197_25"/>
<feBlend mode="normal" in="SourceGraphic" in2="effect1_dropShadow_197_25" result="shape"/>
</filter>
<linearGradient id="paint0_linear_197_25" x1="405.2" y1="701.411" x2="787.362" y2="709.588" gradientUnits="userSpaceOnUse">
<stop stop-color="#FFDA07"/>
<stop offset="1" stop-color="#FFC108" stop-opacity="0.5"/>
</linearGradient>
<linearGradient id="paint1_linear_197_25" x1="408.523" y1="396.5" x2="790.523" y2="396.5" gradientUnits="userSpaceOnUse">
<stop stop-color="#FFDA07"/>
<stop offset="1" stop-color="#FFC108" stop-opacity="0.5"/>
</linearGradient>
<linearGradient id="paint2_linear_197_25" x1="100.523" y1="866.5" x2="482.523" y2="866.5" gradientUnits="userSpaceOnUse">
<stop stop-color="#FFDA07"/>
<stop offset="1" stop-color="#FFC108" stop-opacity="0.5"/>
</linearGradient>
<linearGradient id="paint3_linear_197_25" x1="479.523" y1="242.5" x2="97.5227" y2="242.5" gradientUnits="userSpaceOnUse">
<stop stop-color="#FFDA07"/>
<stop offset="1" stop-color="#FFC108" stop-opacity="0.5"/>
</linearGradient>
<linearGradient id="paint4_linear_197_25" x1="96.8366" y1="556.331" x2="478.986" y2="547.688" gradientUnits="userSpaceOnUse">
<stop stop-color="#FFDA07"/>
<stop offset="1" stop-color="#FFC108" stop-opacity="0.5"/>
</linearGradient>
</defs>
</svg>
